<svg width="40" height="40" viewBox="0 0 40 40" fill="none" xmlns="http://www.w3.org/2000/svg">
<path d="M0 6C0 2.68629 2.68629 0 6 0H34C37.3137 0 40 2.68629 40 6V34C40 37.3137 37.3137 40 34 40H6C2.68629 40 0 37.3137 0 34V6Z" fill="#DBEAFE"/>
<path d="M20 10V30" stroke="#2563EB" stroke-width="2" stroke-linecap="round" stroke-linejoin="round"/>
<path d="M25 13H17.5C16.5717 13 15.6815 13.3687 15.0251 14.0251C14.3687 14.6815 14 15.5717 14 16.5C14 17.4283 14.3687 18.3185 15.0251 18.9749C15.6815 19.6313 16.5717 20 17.5 20H22.5C23.4283 20 24.3185 20.3687 24.9749 21.0251C25.6313 21.6815 26 22.5717 26 23.5C26 24.4283 25.6313 25.3185 24.9749 25.9749C24.3185 26.6313 23.4283 27 22.5 27H14" stroke="#2563EB" stroke-width="2" stroke-linecap="round" stroke-linejoin="round"/>
</svg>
