<svg width="24" height="24" viewBox="0 0 24 24" fill="none" xmlns="http://www.w3.org/2000/svg">
<path d="M12 3.21094V15.2369" stroke="#0D47A1" stroke-width="1.5" stroke-miterlimit="10" stroke-linecap="round"/>
<path d="M16.625 7.45565L12.66 3.48965C12.4846 3.3161 12.2478 3.21875 12.001 3.21875C11.7542 3.21875 11.5174 3.3161 11.342 3.48965L7.375 7.45565M2.75 13.8497V18.4747C2.74961 18.7785 2.80917 19.0795 2.92526 19.3603C3.04136 19.6411 3.21172 19.8962 3.42658 20.1111C3.64144 20.3259 3.89658 20.4963 4.17739 20.6124C4.45819 20.7285 4.75914 20.788 5.063 20.7877H18.938C19.2418 20.7879 19.5426 20.7283 19.8233 20.6121C20.104 20.4959 20.359 20.3256 20.5738 20.1107C20.7885 19.8959 20.9588 19.6408 21.0748 19.36C21.1909 19.0793 21.2504 18.7784 21.25 18.4747V13.8497" stroke="#0D47A1" stroke-width="1.5" stroke-linecap="round" stroke-linejoin="round"/>
</svg>
