<svg width="40" height="40" viewBox="0 0 40 40" fill="none" xmlns="http://www.w3.org/2000/svg">
<path d="M0 6C0 2.68629 2.68629 0 6 0H34C37.3137 0 40 2.68629 40 6V34C40 37.3137 37.3137 40 34 40H6C2.68629 40 0 37.3137 0 34V6Z" fill="#DBEAFE"/>
<path d="M30 25C30 25.5304 29.7893 26.0391 29.4142 26.4142C29.0391 26.7893 28.5304 27 28 27H14.828C14.2976 27.0001 13.789 27.2109 13.414 27.586L11.212 29.788C11.1127 29.8873 10.9862 29.9549 10.8485 29.9823C10.7108 30.0097 10.568 29.9956 10.4383 29.9419C10.3086 29.8881 10.1977 29.7971 10.1197 29.6804C10.0417 29.5637 10 29.4264 10 29.286V13C10 12.4696 10.2107 11.9609 10.5858 11.5858C10.9609 11.2107 11.4696 11 12 11H28C28.5304 11 29.0391 11.2107 29.4142 11.5858C29.7893 11.9609 30 12.4696 30 13V25Z" stroke="#2563EB" stroke-width="2" stroke-linecap="round" stroke-linejoin="round"/>
</svg>
