<svg width="17" height="18" viewBox="0 0 17 18" fill="none" xmlns="http://www.w3.org/2000/svg">
<rect y="0.5" width="17" height="17" rx="8.5" fill="#FFE3D6"/>
<path d="M8.43012 7.12375C8.43012 7.03913 8.3965 6.95797 8.33667 6.89814C8.27683 6.8383 8.19567 6.80469 8.11105 6.80469C8.02643 6.80469 7.94528 6.8383 7.88544 6.89814C7.82561 6.95797 7.79199 7.03913 7.79199 7.12375V9.46354C7.79199 9.5784 7.85325 9.6839 7.9528 9.74048L9.44176 10.5913C9.51505 10.6309 9.60093 10.6403 9.68104 10.6174C9.76116 10.5946 9.82914 10.5413 9.87048 10.4689C9.91181 10.3966 9.92322 10.311 9.90225 10.2303C9.88128 10.1497 9.8296 10.0805 9.75827 10.0374L8.43012 9.27848V7.12375Z" fill="#FF3236"/>
<path d="M8.50039 3.90039C11.317 3.90039 13.6004 6.1838 13.6004 9.00039C13.6004 11.817 11.317 14.1004 8.50039 14.1004C5.6838 14.1004 3.40039 11.817 3.40039 9.00039C3.40039 6.1838 5.6838 3.90039 8.50039 3.90039ZM4.09585 9.00039C4.09585 10.1685 4.55989 11.2889 5.38591 12.1149C6.21192 12.9409 7.33223 13.4049 8.50039 13.4049C9.66855 13.4049 10.7889 12.9409 11.6149 12.1149C12.4409 11.2889 12.9049 10.1685 12.9049 9.00039C12.9049 7.83223 12.4409 6.71192 11.6149 5.88591C10.7889 5.05989 9.66855 4.59585 8.50039 4.59585C7.33223 4.59585 6.21192 5.05989 5.38591 5.88591C4.55989 6.71192 4.09585 7.83223 4.09585 9.00039Z" fill="#FF3236"/>
</svg>
