<svg width="17" height="17" viewBox="0 0 17 17" fill="none" xmlns="http://www.w3.org/2000/svg">
<rect width="17" height="17" rx="8.5" fill="#E9FAFD"/>
<path d="M8.43012 6.62375C8.43012 6.53913 8.3965 6.45797 8.33667 6.39814C8.27683 6.3383 8.19567 6.30469 8.11105 6.30469C8.02643 6.30469 7.94528 6.3383 7.88544 6.39814C7.82561 6.45797 7.79199 6.53913 7.79199 6.62375V8.96354C7.79199 9.0784 7.85325 9.1839 7.9528 9.24048L9.44176 10.0913C9.51505 10.1309 9.60093 10.1403 9.68104 10.1174C9.76116 10.0946 9.82914 10.0413 9.87048 9.96892C9.91181 9.89659 9.92322 9.81095 9.90225 9.73032C9.88128 9.64969 9.8296 9.58046 9.75827 9.53743L8.43012 8.77848V6.62375Z" fill="#13798E"/>
<path d="M8.50039 3.40039C11.317 3.40039 13.6004 5.6838 13.6004 8.50039C13.6004 11.317 11.317 13.6004 8.50039 13.6004C5.6838 13.6004 3.40039 11.317 3.40039 8.50039C3.40039 5.6838 5.6838 3.40039 8.50039 3.40039ZM4.09585 8.50039C4.09585 9.66855 4.55989 10.7889 5.38591 11.6149C6.21192 12.4409 7.33223 12.9049 8.50039 12.9049C9.66855 12.9049 10.7889 12.4409 11.6149 11.6149C12.4409 10.7889 12.9049 9.66855 12.9049 8.50039C12.9049 7.33223 12.4409 6.21192 11.6149 5.38591C10.7889 4.55989 9.66855 4.09585 8.50039 4.09585C7.33223 4.09585 6.21192 4.55989 5.38591 5.38591C4.55989 6.21192 4.09585 7.33223 4.09585 8.50039Z" fill="#13798E"/>
</svg>
