<svg width="142" height="27" viewBox="0 0 142 27" fill="none" xmlns="http://www.w3.org/2000/svg">
<path d="M15.75 6.07518C15.5867 6.34351 15.4175 6.54184 15.2425 6.67018C15.0792 6.78684 14.8633 6.84518 14.595 6.84518C14.3383 6.84518 14.0583 6.75768 13.755 6.58268C13.4633 6.39601 13.1192 6.19768 12.7225 5.98768C12.3258 5.77768 11.8708 5.58518 11.3575 5.41018C10.8442 5.22351 10.2433 5.13018 9.555 5.13018C8.34167 5.13018 7.43167 5.40434 6.825 5.95268C6.21833 6.48934 5.915 7.19518 5.915 8.07018C5.915 8.63018 6.07833 9.09684 6.405 9.47018C6.74333 9.83184 7.18083 10.1468 7.7175 10.4152C8.26583 10.6835 8.88417 10.9227 9.5725 11.1327C10.2608 11.3427 10.9667 11.576 11.69 11.8327C12.4133 12.0777 13.1192 12.3693 13.8075 12.7077C14.4958 13.046 15.1083 13.4718 15.645 13.9852C16.1933 14.4985 16.6308 15.1285 16.9575 15.8752C17.2958 16.6102 17.465 17.5085 17.465 18.5702C17.465 19.7252 17.2608 20.8102 16.8525 21.8252C16.4558 22.8285 15.8783 23.7093 15.12 24.4677C14.3617 25.2143 13.4225 25.8035 12.3025 26.2352C11.1942 26.6668 9.93417 26.8827 8.5225 26.8827C7.7175 26.8827 6.9125 26.801 6.1075 26.6377C5.31417 26.4743 4.54417 26.2468 3.7975 25.9552C3.0625 25.6635 2.36833 25.3135 1.715 24.9052C1.06167 24.4968 0.49 24.0418 0 23.5402L1.54 21.0552C1.66833 20.8685 1.8375 20.7168 2.0475 20.6002C2.2575 20.4718 2.47917 20.4077 2.7125 20.4077C3.0275 20.4077 3.36 20.5243 3.71 20.7577C4.06 20.991 4.4625 21.2477 4.9175 21.5277C5.3725 21.8077 5.8975 22.0643 6.4925 22.2977C7.09917 22.531 7.8225 22.6477 8.6625 22.6477C9.8875 22.6477 10.8325 22.3677 11.4975 21.8077C12.1742 21.2477 12.5125 20.4135 12.5125 19.3052C12.5125 18.6635 12.3433 18.1443 12.005 17.7477C11.6783 17.351 11.2467 17.0185 10.71 16.7502C10.1733 16.4818 9.56083 16.2543 8.8725 16.0677C8.18417 15.8693 7.47833 15.6535 6.755 15.4202C6.03167 15.1868 5.32583 14.9068 4.6375 14.5802C3.94917 14.2535 3.33667 13.8218 2.8 13.2852C2.26333 12.7485 1.82583 12.0835 1.4875 11.2902C1.16083 10.4968 0.9975 9.51101 0.9975 8.33268C0.9975 7.38768 1.18417 6.47184 1.5575 5.58518C1.93083 4.69851 2.47917 3.91101 3.2025 3.22268C3.92583 2.53434 4.8125 1.98018 5.8625 1.56018C6.92417 1.14018 8.1375 0.930176 9.5025 0.930176C11.0308 0.930176 12.4425 1.16934 13.7375 1.64768C15.0442 2.11434 16.1467 2.76768 17.045 3.60768L15.75 6.07518Z" fill="#0D47A1"/>
<path d="M26.1723 11.6927H27.2048C28.0682 11.6927 28.6923 11.4243 29.0773 10.8877L35.4998 2.29518C35.8032 1.88684 36.1357 1.60684 36.4973 1.45518C36.859 1.29184 37.3023 1.21018 37.8273 1.21018H42.3773L34.2923 11.6227C33.7673 12.2993 33.2248 12.7835 32.6648 13.0752C33.0732 13.2385 33.4407 13.4543 33.7673 13.7227C34.094 13.9793 34.409 14.3235 34.7123 14.7552L43.0073 26.6027H38.3348C38.0315 26.6027 37.769 26.5793 37.5473 26.5327C37.3373 26.486 37.1507 26.4218 36.9873 26.3402C36.824 26.2585 36.684 26.1593 36.5673 26.0427C36.4507 25.9143 36.3398 25.7685 36.2348 25.6052L29.7073 16.4702C29.4857 16.1552 29.2232 15.9335 28.9198 15.8052C28.6165 15.6652 28.1907 15.5952 27.6423 15.5952H26.1723V26.6027H20.9223V1.21018H26.1723V11.6927Z" fill="#0D47A1"/>
<path d="M56.3883 16.8377V26.6027H51.1383V16.8377L41.9158 1.21018H46.5358C46.9908 1.21018 47.3524 1.32101 47.6208 1.54268C47.9008 1.75268 48.1224 2.02684 48.2858 2.36518L52.4508 10.3627C52.7308 10.8993 52.9816 11.401 53.2033 11.8677C53.4366 12.3343 53.6408 12.801 53.8158 13.2677C53.9791 12.801 54.1658 12.3343 54.3758 11.8677C54.5975 11.3893 54.8424 10.8877 55.1108 10.3627L59.2408 2.36518C59.3808 2.08518 59.5908 1.82268 59.8708 1.57768C60.1508 1.33268 60.5124 1.21018 60.9558 1.21018H65.6108L56.3883 16.8377Z" fill="#0D47A1"/>
<path d="M78.4123 13.6702H87.1273V24.1527C85.8323 25.0977 84.4498 25.7918 82.9798 26.2352C81.5215 26.6668 79.9756 26.8827 78.3423 26.8827C76.254 26.8827 74.364 26.5618 72.6723 25.9202C70.9806 25.2668 69.534 24.3627 68.3323 23.2077C67.1306 22.0527 66.2031 20.6818 65.5498 19.0952C64.8965 17.5085 64.5698 15.776 64.5698 13.8977C64.5698 11.996 64.879 10.2518 65.4973 8.66518C66.1273 7.07851 67.0198 5.71351 68.1748 4.57018C69.3298 3.42684 70.724 2.53434 72.3573 1.89268C74.0023 1.25101 75.8398 0.930176 77.8698 0.930176C78.9198 0.930176 79.8998 1.01768 80.8098 1.19268C81.7198 1.35601 82.5598 1.58934 83.3298 1.89268C84.0998 2.18434 84.8056 2.53434 85.4473 2.94268C86.089 3.35101 86.6723 3.80018 87.1973 4.29018L85.6748 6.63518C85.4415 7.00851 85.1381 7.23601 84.7648 7.31768C84.3915 7.39934 83.9831 7.30601 83.5398 7.03768C83.1198 6.78101 82.7056 6.55351 82.2973 6.35518C81.9006 6.14518 81.4748 5.96434 81.0198 5.81268C80.5648 5.66101 80.069 5.54434 79.5323 5.46268C78.9956 5.38101 78.3773 5.34018 77.6773 5.34018C76.499 5.34018 75.4315 5.54434 74.4748 5.95268C73.5181 6.36101 72.7015 6.93851 72.0248 7.68518C71.3598 8.43184 70.8465 9.33018 70.4848 10.3802C70.1231 11.4302 69.9423 12.6027 69.9423 13.8977C69.9423 15.2977 70.1406 16.5518 70.5373 17.6602C70.934 18.7568 71.494 19.6843 72.2173 20.4427C72.9406 21.201 73.804 21.7785 74.8073 22.1752C75.8223 22.5718 76.9481 22.7702 78.1848 22.7702C79.0248 22.7702 79.7715 22.6885 80.4248 22.5252C81.0898 22.3502 81.7373 22.1168 82.3673 21.8252V17.5552H79.4973C79.159 17.5552 78.8906 17.4677 78.6923 17.2927C78.5056 17.106 78.4123 16.8727 78.4123 16.5927V13.6702Z" fill="#0D47A1"/>
<path d="M99.0136 13.2327C99.8653 13.2327 100.6 13.1277 101.219 12.9177C101.837 12.696 102.344 12.3985 102.741 12.0252C103.138 11.6402 103.429 11.191 103.616 10.6777C103.803 10.1643 103.896 9.60434 103.896 8.99768C103.896 7.79601 103.494 6.86268 102.689 6.19768C101.895 5.53268 100.682 5.20018 99.0486 5.20018H96.3186V13.2327H99.0136ZM111.316 26.6027H106.574C105.687 26.6027 105.045 26.2643 104.649 25.5877L99.8186 17.8002C99.6203 17.4968 99.3986 17.2752 99.1536 17.1352C98.9203 16.9952 98.5703 16.9252 98.1036 16.9252H96.3186V26.6027H91.0686V1.21018H99.0486C100.822 1.21018 102.339 1.39684 103.599 1.77018C104.859 2.13184 105.891 2.63934 106.696 3.29268C107.501 3.94601 108.09 4.72768 108.464 5.63768C108.837 6.53601 109.024 7.52768 109.024 8.61268C109.024 9.45268 108.901 10.2518 108.656 11.0102C108.423 11.7568 108.079 12.4393 107.624 13.0577C107.169 13.676 106.609 14.2243 105.944 14.7027C105.279 15.181 104.52 15.566 103.669 15.8577C104.007 16.0443 104.322 16.2718 104.614 16.5402C104.905 16.7968 105.168 17.106 105.401 17.4677L111.316 26.6027Z" fill="#0D47A1"/>
<path d="M118.733 26.6027H113.448V1.21018H118.733V26.6027Z" fill="#0D47A1"/>
<path d="M141.666 5.44518H134.246V26.6027H128.979V5.44518H121.559V1.21018H141.666V5.44518Z" fill="#0D47A1"/>
</svg>
