<svg width="32" height="32" viewBox="0 0 32 32" fill="none" xmlns="http://www.w3.org/2000/svg">
<path d="M27.1075 15.2757C27.0741 15.2025 26.2816 13.4428 24.531 11.6923C22.1887 9.35365 19.2368 8.11694 15.9799 8.11694C12.723 8.11694 9.77101 9.35365 7.43149 11.6923C5.68092 13.4428 4.88841 15.2025 4.85222 15.2757C4.79093 15.4147 4.75928 15.5649 4.75928 15.7168C4.75928 15.8686 4.79093 16.0188 4.85222 16.1578C4.8857 16.232 5.6782 17.9907 7.42968 19.7413C9.77101 22.0799 12.723 23.3157 15.9799 23.3157C19.2368 23.3157 22.1887 22.0799 24.5274 19.7413C26.2788 17.9907 27.0713 16.232 27.1048 16.1578C27.1665 16.019 27.1987 15.8689 27.1991 15.7171C27.1996 15.5652 27.1684 15.4149 27.1075 15.2757ZM22.9405 18.2612C20.9982 20.1737 18.6568 21.1444 15.9799 21.1444C13.3029 21.1444 10.9616 20.1737 9.02193 18.2603C8.25868 17.5051 7.60215 16.6492 7.07052 15.7163C7.6023 14.7838 8.25882 13.9282 9.02193 13.1732C10.9625 11.2589 13.3029 10.2882 15.9799 10.2882C18.6568 10.2882 20.9973 11.2589 22.9378 13.1732C23.701 13.9282 24.3575 14.7838 24.8892 15.7163C24.3575 16.6491 23.701 17.505 22.9378 18.2603L22.9405 18.2612ZM15.9799 11.7357C15.1926 11.7357 14.423 11.9692 13.7684 12.4065C13.1138 12.8439 12.6035 13.4656 12.3023 14.193C12.001 14.9204 11.9221 15.7207 12.0757 16.4929C12.2293 17.2651 12.6085 17.9743 13.1652 18.531C13.7219 19.0877 14.4311 19.4669 15.2033 19.6205C15.9755 19.7741 16.7758 19.6952 17.5032 19.3939C18.2306 19.0927 18.8522 18.5824 19.2896 17.9278C19.727 17.2732 19.9605 16.5036 19.9605 15.7163C19.9593 14.661 19.5395 13.6492 18.7933 12.9029C18.047 12.1567 17.0352 11.7369 15.9799 11.7357ZM15.9799 17.5257C15.622 17.5257 15.2722 17.4196 14.9746 17.2208C14.6771 17.0219 14.4452 16.7394 14.3082 16.4087C14.1713 16.0781 14.1355 15.7143 14.2053 15.3633C14.2751 15.0123 14.4474 14.6899 14.7005 14.4369C14.9535 14.1839 15.2759 14.0115 15.6269 13.9417C15.9779 13.8719 16.3417 13.9077 16.6723 14.0447C17.0029 14.1816 17.2855 14.4135 17.4843 14.7111C17.6831 15.0086 17.7893 15.3585 17.7893 15.7163C17.7893 16.1962 17.5986 16.6564 17.2593 16.9957C16.92 17.3351 16.4598 17.5257 15.9799 17.5257Z" fill="#646464"/>
</svg>
