<svg width="40" height="40" viewBox="0 0 40 40" fill="none" xmlns="http://www.w3.org/2000/svg">
<path d="M0 6C0 2.68629 2.68629 0 6 0H34C37.3137 0 40 2.68629 40 6V34C40 37.3137 37.3137 40 34 40H6C2.68629 40 0 37.3137 0 34V6Z" fill="#FEF9C3"/>
<path d="M29.7304 26.0002L21.7304 12.0002C21.556 11.6924 21.303 11.4364 20.9973 11.2583C20.6917 11.0802 20.3442 10.9863 19.9904 10.9863C19.6366 10.9863 19.2892 11.0802 18.9835 11.2583C18.6778 11.4364 18.4249 11.6924 18.2504 12.0002L10.2504 26.0002C10.0741 26.3056 9.98165 26.6521 9.98243 27.0047C9.98321 27.3573 10.0772 27.7035 10.2549 28.008C10.4325 28.3126 10.6876 28.5648 10.9941 28.7391C11.3007 28.9133 11.6478 29.0034 12.0004 29.0002H28.0004C28.3513 28.9999 28.6959 28.9072 28.9997 28.7315C29.3035 28.5558 29.5556 28.3033 29.7309 27.9993C29.9062 27.6954 29.9985 27.3506 29.9984 26.9997C29.9983 26.6488 29.9059 26.3041 29.7304 26.0002Z" stroke="#CA8A04" stroke-width="2" stroke-linecap="round" stroke-linejoin="round"/>
<path d="M20 17V21" stroke="#CA8A04" stroke-width="2" stroke-linecap="round" stroke-linejoin="round"/>
<path d="M20 25H20.01" stroke="#CA8A04" stroke-width="2" stroke-linecap="round" stroke-linejoin="round"/>
</svg>
