<svg width="17" height="17" viewBox="0 0 17 17" fill="none" xmlns="http://www.w3.org/2000/svg">
<g clip-path="url(#clip0_2898_5727)">
<path d="M15.1951 6.96898C15.5135 8.53117 15.2866 10.1553 14.5524 11.5704C13.8182 12.9856 12.621 14.1063 11.1606 14.7456C9.7001 15.3849 8.06458 15.5043 6.52678 15.0837C4.98897 14.6631 3.64183 13.7281 2.71 12.4344C1.77817 11.1408 1.31799 9.56686 1.40619 7.97502C1.49439 6.38318 2.12564 4.86969 3.19468 3.68694C4.26371 2.50419 5.70591 1.72368 7.28077 1.47556C8.85562 1.22745 10.4679 1.52673 11.8488 2.32349" stroke="#166534" stroke-width="2.78799" stroke-linecap="round" stroke-linejoin="round"/>
<path d="M6.27295 7.6661L8.36394 9.75709L15.3339 2.78711" stroke="#166534" stroke-width="2.78799" stroke-linecap="round" stroke-linejoin="round"/>
</g>
<defs>
<clipPath id="clip0_2898_5727">
<rect width="16.728" height="16.728" fill="white"/>
</clipPath>
</defs>
</svg>
