<svg width="24" height="24" viewBox="0 0 24 24" fill="none" xmlns="http://www.w3.org/2000/svg">
<path d="M3.96923 8.03024C3.8995 7.96059 3.84418 7.87787 3.80644 7.78682C3.76869 7.69577 3.74927 7.59818 3.74927 7.49961C3.74927 7.40105 3.76869 7.30346 3.80644 7.21241C3.84418 7.12136 3.8995 7.03864 3.96923 6.96899L6.96923 3.96899C7.07412 3.86398 7.20781 3.79245 7.35338 3.76347C7.49894 3.73448 7.64983 3.74933 7.78695 3.80615C7.92407 3.86296 8.04124 3.95918 8.12365 4.08263C8.20605 4.20607 8.24997 4.35119 8.24986 4.49961V6.74961H19.4999C19.6988 6.74961 19.8895 6.82863 20.0302 6.96928C20.1708 7.10994 20.2499 7.3007 20.2499 7.49961C20.2499 7.69853 20.1708 7.88929 20.0302 8.02994C19.8895 8.1706 19.6988 8.24961 19.4999 8.24961H8.24986V10.4996C8.24997 10.648 8.20605 10.7932 8.12365 10.9166C8.04124 11.04 7.92407 11.1363 7.78695 11.1931C7.64983 11.2499 7.49894 11.2647 7.35338 11.2358C7.20781 11.2068 7.07412 11.1352 6.96923 11.0302L3.96923 8.03024ZM20.0305 15.969L17.0305 12.969C16.9256 12.864 16.7919 12.7925 16.6463 12.7635C16.5008 12.7345 16.3499 12.7493 16.2128 12.8061C16.0756 12.863 15.9585 12.9592 15.8761 13.0826C15.7937 13.2061 15.7497 13.3512 15.7499 13.4996V15.7496H4.49986C4.30095 15.7496 4.11018 15.8286 3.96953 15.9693C3.82888 16.1099 3.74986 16.3007 3.74986 16.4996C3.74986 16.6985 3.82888 16.8893 3.96953 17.0299C4.11018 17.1706 4.30095 17.2496 4.49986 17.2496H15.7499V19.4996C15.7497 19.648 15.7937 19.7932 15.8761 19.9166C15.9585 20.04 16.0756 20.1363 16.2128 20.1931C16.3499 20.2499 16.5008 20.2647 16.6463 20.2358C16.7919 20.2068 16.9256 20.1353 17.0305 20.0302L20.0305 17.0302C20.1002 16.9606 20.1555 16.8779 20.1933 16.7868C20.231 16.6958 20.2504 16.5982 20.2504 16.4996C20.2504 16.4011 20.231 16.3035 20.1933 16.2124C20.1555 16.1214 20.1002 16.0386 20.0305 15.969Z" fill="white"/>
</svg>
