<svg width="16" height="16" viewBox="0 0 16 16" fill="none" xmlns="http://www.w3.org/2000/svg">
<mask id="path-1-inside-1_2_10869" fill="white">
<path d="M13 2H11.5V1.5C11.5 1.36739 11.4473 1.24021 11.3536 1.14645C11.2598 1.05268 11.1326 1 11 1C10.8674 1 10.7402 1.05268 10.6464 1.14645C10.5527 1.24021 10.5 1.36739 10.5 1.5V2H5.5V1.5C5.5 1.36739 5.44732 1.24021 5.35355 1.14645C5.25979 1.05268 5.13261 1 5 1C4.86739 1 4.74021 1.05268 4.64645 1.14645C4.55268 1.24021 4.5 1.36739 4.5 1.5V2H3C2.73478 2 2.48043 2.10536 2.29289 2.29289C2.10536 2.48043 2 2.73478 2 3V13C2 13.2652 2.10536 13.5196 2.29289 13.7071C2.48043 13.8946 2.73478 14 3 14H13C13.2652 14 13.5196 13.8946 13.7071 13.7071C13.8946 13.5196 14 13.2652 14 13V3C14 2.73478 13.8946 2.48043 13.7071 2.29289C13.5196 2.10536 13.2652 2 13 2ZM4.5 3V3.5C4.5 3.63261 4.55268 3.75979 4.64645 3.85355C4.74021 3.94732 4.86739 4 5 4C5.13261 4 5.25979 3.94732 5.35355 3.85355C5.44732 3.75979 5.5 3.63261 5.5 3.5V3H10.5V3.5C10.5 3.63261 10.5527 3.75979 10.6464 3.85355C10.7402 3.94732 10.8674 4 11 4C11.1326 4 11.2598 3.94732 11.3536 3.85355C11.4473 3.75979 11.5 3.63261 11.5 3.5V3H13V5H3V3H4.5ZM13 13H3V6H13V13Z"/>
</mask>
<path d="M13 2H11.5V1.5C11.5 1.36739 11.4473 1.24021 11.3536 1.14645C11.2598 1.05268 11.1326 1 11 1C10.8674 1 10.7402 1.05268 10.6464 1.14645C10.5527 1.24021 10.5 1.36739 10.5 1.5V2H5.5V1.5C5.5 1.36739 5.44732 1.24021 5.35355 1.14645C5.25979 1.05268 5.13261 1 5 1C4.86739 1 4.74021 1.05268 4.64645 1.14645C4.55268 1.24021 4.5 1.36739 4.5 1.5V2H3C2.73478 2 2.48043 2.10536 2.29289 2.29289C2.10536 2.48043 2 2.73478 2 3V13C2 13.2652 2.10536 13.5196 2.29289 13.7071C2.48043 13.8946 2.73478 14 3 14H13C13.2652 14 13.5196 13.8946 13.7071 13.7071C13.8946 13.5196 14 13.2652 14 13V3C14 2.73478 13.8946 2.48043 13.7071 2.29289C13.5196 2.10536 13.2652 2 13 2ZM4.5 3V3.5C4.5 3.63261 4.55268 3.75979 4.64645 3.85355C4.74021 3.94732 4.86739 4 5 4C5.13261 4 5.25979 3.94732 5.35355 3.85355C5.44732 3.75979 5.5 3.63261 5.5 3.5V3H10.5V3.5C10.5 3.63261 10.5527 3.75979 10.6464 3.85355C10.7402 3.94732 10.8674 4 11 4C11.1326 4 11.2598 3.94732 11.3536 3.85355C11.4473 3.75979 11.5 3.63261 11.5 3.5V3H13V5H3V3H4.5ZM13 13H3V6H13V13Z" fill="black"/>
<path d="M13 2V0.67V2ZM11.5 2H10.17V3.33H11.5V2ZM11 1V-0.33V1ZM10.5 2V3.33H11.83V2H10.5ZM5.5 2H4.17V3.33H5.5V2ZM5 1V-0.33V1ZM4.5 2V3.33H5.83V2H4.5ZM3 2V0.67V2ZM2 3H0.67H2ZM2 13H0.67H2ZM4.5 3H5.83V1.67H4.5V3ZM5.5 3V1.67H4.17V3H5.5ZM10.5 3H11.83V1.67H10.5V3ZM11.5 3V1.67H10.17V3H11.5ZM13 3H14.33V1.67H13V3ZM13 5V6.33H14.33V5H13ZM3 5H1.67V6.33H3V5ZM3 3V1.67H1.67V3H3ZM13 13V14.33H14.33V13H13ZM3 13H1.67V14.33H3V13ZM3 6V4.67H1.67V6H3ZM13 6H14.33V4.67H13V6ZM13 2V0.67H11.5V2V3.33H13V2ZM11.5 2H12.83V1.5H11.5H10.17V2H11.5ZM11.5 1.5H12.83C12.83 1.01466 12.6372 0.549188 12.294 0.205995L11.3536 1.14645L10.4131 2.0869C10.2574 1.93124 10.17 1.72013 10.17 1.5H11.5ZM11.3536 1.14645L12.294 0.205995C11.9508 -0.137198 11.4853 -0.33 11 -0.33V1V2.33C10.7799 2.33 10.5688 2.24255 10.4131 2.0869L11.3536 1.14645ZM11 1V-0.33C10.5147 -0.33 10.0492 -0.137198 9.70599 0.205995L10.6464 1.14645L11.5869 2.0869C11.4312 2.24255 11.2201 2.33 11 2.33V1ZM10.6464 1.14645L9.70599 0.205995C9.3628 0.549188 9.17 1.01466 9.17 1.5H10.5H11.83C11.83 1.72013 11.7426 1.93124 11.5869 2.0869L10.6464 1.14645ZM10.5 1.5H9.17V2H10.5H11.83V1.5H10.5ZM10.5 2V0.67H5.5V2V3.33H10.5V2ZM5.5 2H6.83V1.5H5.5H4.17V2H5.5ZM5.5 1.5H6.83C6.83 1.01465 6.6372 0.549186 6.29401 0.205995L5.35355 1.14645L4.4131 2.0869C4.25745 1.93124 4.17 1.72013 4.17 1.5H5.5ZM5.35355 1.14645L6.29401 0.205995C5.95081 -0.137197 5.48535 -0.33 5 -0.33V1V2.33C4.77987 2.33 4.56876 2.24255 4.4131 2.0869L5.35355 1.14645ZM5 1V-0.33C4.51465 -0.33 4.04919 -0.137197 3.70599 0.205995L4.64645 1.14645L5.5869 2.0869C5.43124 2.24255 5.22013 2.33 5 2.33V1ZM4.64645 1.14645L3.70599 0.205995C3.3628 0.549186 3.17 1.01465 3.17 1.5H4.5H5.83C5.83 1.72013 5.74255 1.93124 5.5869 2.0869L4.64645 1.14645ZM4.5 1.5H3.17V2H4.5H5.83V1.5H4.5ZM4.5 2V0.67H3V2V3.33H4.5V2ZM3 2V0.67C2.38205 0.67 1.7894 0.915481 1.35244 1.35244L2.29289 2.29289L3.23335 3.23335C3.17146 3.29523 3.08752 3.33 3 3.33V2ZM2.29289 2.29289L1.35244 1.35244C0.915481 1.7894 0.67 2.38205 0.67 3H2H3.33C3.33 3.08752 3.29523 3.17146 3.23335 3.23335L2.29289 2.29289ZM2 3H0.67V13H2H3.33V3H2ZM2 13H0.67C0.67 13.618 0.915481 14.2106 1.35244 14.6476L2.29289 13.7071L3.23335 12.7667C3.29523 12.8285 3.33 12.9125 3.33 13H2ZM2.29289 13.7071L1.35244 14.6476C1.7894 15.0845 2.38204 15.33 3 15.33V14V12.67C3.08752 12.67 3.17146 12.7048 3.23335 12.7667L2.29289 13.7071ZM3 14V15.33H13V14V12.67H3V14ZM13 14V15.33C13.618 15.33 14.2106 15.0845 14.6476 14.6476L13.7071 13.7071L12.7667 12.7667C12.8285 12.7048 12.9125 12.67 13 12.67V14ZM13.7071 13.7071L14.6476 14.6476C15.0845 14.2106 15.33 13.618 15.33 13H14H12.67C12.67 12.9125 12.7048 12.8285 12.7667 12.7667L13.7071 13.7071ZM14 13H15.33V3H14H12.67V13H14ZM14 3H15.33C15.33 2.38204 15.0845 1.7894 14.6476 1.35244L13.7071 2.29289L12.7667 3.23335C12.7048 3.17146 12.67 3.08752 12.67 3H14ZM13.7071 2.29289L14.6476 1.35244C14.2106 0.915481 13.618 0.67 13 0.67V2V3.33C12.9125 3.33 12.8285 3.29523 12.7667 3.23335L13.7071 2.29289ZM4.5 3H3.17V3.5H4.5H5.83V3H4.5ZM4.5 3.5H3.17C3.17 3.98535 3.3628 4.45081 3.70599 4.79401L4.64645 3.85355L5.5869 2.9131C5.74255 3.06876 5.83 3.27987 5.83 3.5H4.5ZM4.64645 3.85355L3.70599 4.79401C4.04919 5.1372 4.51465 5.33 5 5.33V4V2.67C5.22013 2.67 5.43124 2.75745 5.5869 2.9131L4.64645 3.85355ZM5 4V5.33C5.48535 5.33 5.95081 5.1372 6.29401 4.79401L5.35355 3.85355L4.4131 2.9131C4.56876 2.75745 4.77987 2.67 5 2.67V4ZM5.35355 3.85355L6.29401 4.79401C6.6372 4.45081 6.83 3.98535 6.83 3.5H5.5H4.17C4.17 3.27987 4.25745 3.06876 4.4131 2.9131L5.35355 3.85355ZM5.5 3.5H6.83V3H5.5H4.17V3.5H5.5ZM5.5 3V4.33H10.5V3V1.67H5.5V3ZM10.5 3H9.17V3.5H10.5H11.83V3H10.5ZM10.5 3.5H9.17C9.17 3.98534 9.3628 4.45081 9.70599 4.79401L10.6464 3.85355L11.5869 2.9131C11.7426 3.06876 11.83 3.27987 11.83 3.5H10.5ZM10.6464 3.85355L9.70599 4.79401C10.0492 5.1372 10.5147 5.33 11 5.33V4V2.67C11.2201 2.67 11.4312 2.75745 11.5869 2.9131L10.6464 3.85355ZM11 4V5.33C11.4853 5.33 11.9508 5.1372 12.294 4.79401L11.3536 3.85355L10.4131 2.9131C10.5688 2.75745 10.7799 2.67 11 2.67V4ZM11.3536 3.85355L12.294 4.79401C12.6372 4.45081 12.83 3.98534 12.83 3.5H11.5H10.17C10.17 3.27987 10.2574 3.06876 10.4131 2.9131L11.3536 3.85355ZM11.5 3.5H12.83V3H11.5H10.17V3.5H11.5ZM11.5 3V4.33H13V3V1.67H11.5V3ZM13 3H11.67V5H13H14.33V3H13ZM13 5V3.67H3V5V6.33H13V5ZM3 5H4.33V3H3H1.67V5H3ZM3 3V4.33H4.5V3V1.67H3V3ZM13 13V11.67H3V13V14.33H13V13ZM3 13H4.33V6H3H1.67V13H3ZM3 6V7.33H13V6V4.67H3V6ZM13 6H11.67V13H13H14.33V6H13Z" fill="#71717A" mask="url(#path-1-inside-1_2_10869)"/>
</svg>
