<svg width="36" height="36" viewBox="0 0 36 36" fill="none" xmlns="http://www.w3.org/2000/svg">
<path d="M19.4138 17.9998L25.7069 11.7068C25.8944 11.5193 25.9997 11.265 25.9997 10.9998C25.9997 10.7347 25.8944 10.4804 25.7069 10.2928C25.5193 10.1053 25.265 10 24.9998 10C24.7347 10 24.4804 10.1053 24.2928 10.2928L17.9998 16.5858L11.7068 10.2928C11.614 10.2 11.5038 10.1264 11.3825 10.0761C11.2612 10.0259 11.1312 10 10.9998 10C10.8685 10 10.7385 10.0259 10.6172 10.0761C10.4959 10.1264 10.3857 10.2 10.2928 10.2928C10.1053 10.4804 10 10.7347 10 10.9998C10 11.265 10.1053 11.5193 10.2928 11.7068L16.5858 17.9998L10.2928 24.2928C10.1053 24.4804 10 24.7347 10 24.9998C10 25.265 10.1053 25.5193 10.2928 25.7069C10.4804 25.8944 10.7347 25.9997 10.9998 25.9997C11.265 25.9997 11.5193 25.8944 11.7068 25.7069L17.9998 19.4138L24.2928 25.7069C24.3855 25.8 24.4957 25.874 24.617 25.9244C24.7383 25.9749 24.8684 26.0009 24.9998 26.0009C25.1313 26.0009 25.2614 25.9749 25.3827 25.9244C25.504 25.874 25.6142 25.8 25.7069 25.7069C25.7998 25.6141 25.8735 25.5039 25.9238 25.3825C25.9742 25.2612 26 25.1312 26 24.9998C26 24.8685 25.9742 24.7385 25.9238 24.6172C25.8735 24.4958 25.7998 24.3856 25.7069 24.2928L19.4138 17.9998Z" fill="#5C5F62"/>
</svg>
