<svg width="24" height="24" viewBox="0 0 24 24" fill="none" xmlns="http://www.w3.org/2000/svg">
<path d="M0 4C0 1.79086 1.79086 0 4 0H20C22.2091 0 24 1.79086 24 4V20C24 22.2091 22.2091 24 20 24H4C1.79086 24 0 22.2091 0 20V4Z" fill="#F3F4F6"/>
<path d="M8.05133 15.3333L6.91533 16.4693C6.74689 16.6378 6.55222 16.6764 6.33133 16.5853C6.11044 16.4942 6 16.3287 6 16.0887V7.07733C6 6.77022 6.10289 6.514 6.30867 6.30867C6.51444 6.10333 6.77067 6.00044 7.07733 6H16.9233C17.23 6 17.4862 6.10289 17.692 6.30867C17.8978 6.51444 18.0004 6.77067 18 7.07733V14.2567C18 14.5633 17.8973 14.8196 17.692 15.0253C17.4867 15.2311 17.2304 15.3338 16.9233 15.3333H8.05133ZM7.76667 14.6667H16.9233C17.0256 14.6667 17.1196 14.624 17.2053 14.5387C17.2911 14.4533 17.3338 14.3593 17.3333 14.2567V7.07667C17.3333 6.97444 17.2907 6.88044 17.2053 6.79467C17.12 6.70889 17.026 6.66622 16.9233 6.66667H7.07667C6.97444 6.66667 6.88044 6.70933 6.79467 6.79467C6.70889 6.88 6.66622 6.974 6.66667 7.07667V15.7633L7.76667 14.6667ZM8.66667 13H12.6667C12.7618 13 12.8411 12.9682 12.9047 12.9047C12.9682 12.8411 13 12.7618 13 12.6667C13 12.5716 12.9682 12.4922 12.9047 12.4287C12.8411 12.3651 12.7618 12.3333 12.6667 12.3333H8.66667C8.572 12.3333 8.49267 12.3651 8.42867 12.4287C8.36467 12.4922 8.33289 12.5716 8.33333 12.6667C8.33378 12.7618 8.36556 12.8411 8.42867 12.9047C8.49178 12.9682 8.57111 13 8.66667 13ZM8.66667 11H15.3333C15.4284 11 15.5078 10.9682 15.5713 10.9047C15.6349 10.8411 15.6667 10.7618 15.6667 10.6667C15.6667 10.5716 15.6349 10.4922 15.5713 10.4287C15.5078 10.3651 15.4284 10.3333 15.3333 10.3333H8.66667C8.572 10.3333 8.49267 10.3651 8.42867 10.4287C8.36467 10.4922 8.33289 10.5716 8.33333 10.6667C8.33378 10.7618 8.36556 10.8411 8.42867 10.9047C8.49178 10.9682 8.57111 11 8.66667 11ZM8.66667 9H15.3333C15.4284 9 15.5078 8.96822 15.5713 8.90467C15.6349 8.84111 15.6667 8.76178 15.6667 8.66667C15.6667 8.57156 15.6349 8.49222 15.5713 8.42867C15.5078 8.36511 15.4284 8.33333 15.3333 8.33333H8.66667C8.572 8.33333 8.49267 8.36511 8.42867 8.42867C8.36467 8.49222 8.33289 8.57156 8.33333 8.66667C8.33378 8.76178 8.36556 8.84111 8.42867 8.90467C8.49178 8.96822 8.57111 9 8.66667 9Z" fill="#13191C"/>
</svg>
