<svg width="24" height="24" viewBox="0 0 24 24" fill="none" xmlns="http://www.w3.org/2000/svg">
<path d="M4.687 6.21359L6.8 18.9766C6.89665 19.5609 7.19759 20.0919 7.6492 20.475C8.10081 20.8581 8.67377 21.0685 9.266 21.0686H12.614M19.312 6.21359L17.2 18.9766C17.1033 19.5609 16.8024 20.0919 16.3508 20.475C15.8992 20.8581 15.3262 21.0685 14.734 21.0686H11.386M10.022 11.1166V16.1656M13.978 11.1166V16.1656M2.75 6.21359H21.25M14.777 6.21359V4.43359C14.777 4.03577 14.619 3.65424 14.3377 3.37293C14.0564 3.09163 13.6748 2.93359 13.277 2.93359H10.723C10.3252 2.93359 9.94364 3.09163 9.66234 3.37293C9.38104 3.65424 9.223 4.03577 9.223 4.43359V6.21359H14.777Z" stroke="#13191C" stroke-width="1.5" stroke-linecap="round" stroke-linejoin="round"/>
</svg>
