<svg width="67" height="67" viewBox="0 0 67 67" fill="none" xmlns="http://www.w3.org/2000/svg">
<path d="M0 11.152C0 4.9929 4.99291 0 11.152 0H55.7599C61.9189 0 66.9118 4.99291 66.9118 11.152V55.7599C66.9118 61.9189 61.9189 66.9118 55.7598 66.9118H11.152C4.9929 66.9118 0 61.9189 0 55.7598V11.152Z" fill="#DBEAFE"/>
<path d="M23.1547 42.3385C22.5404 42.3385 22.028 42.1332 21.6173 41.7225C21.2067 41.3119 21.0009 40.799 21 40.1839V25.8265C21 25.2123 21.2058 24.6999 21.6173 24.2892C22.0289 23.8785 22.5409 23.6728 23.1533 23.6719H42.8467C43.46 23.6719 43.972 23.8777 44.3827 24.2892C44.7933 24.7008 44.9991 25.2132 45 25.8265V40.1852C45 40.7985 44.7942 41.311 44.3827 41.7225C43.9711 42.1341 43.4591 42.3394 42.8467 42.3385H23.1547ZM43.6667 26.1852L33.5973 32.7772C33.5031 32.8261 33.408 32.8674 33.312 32.9012C33.2151 32.9341 33.1111 32.9505 33 32.9505C32.8889 32.9505 32.7849 32.9341 32.688 32.9012C32.5911 32.8683 32.496 32.827 32.4027 32.7772L22.3333 26.1839V40.1839C22.3333 40.4239 22.4102 40.6208 22.564 40.7745C22.7178 40.9283 22.9147 41.0052 23.1547 41.0052H42.8467C43.0858 41.0052 43.2822 40.9283 43.436 40.7745C43.5898 40.6208 43.6667 40.4239 43.6667 40.1839V26.1852ZM33 31.6719L43.256 25.0052H22.744L33 31.6719ZM22.3333 26.4665V25.3852V25.4305V25.0052V25.4319V25.3625V26.4665Z" fill="#0D47A1"/>
</svg>
