<svg width="20" height="21" viewBox="0 0 20 21" fill="none" xmlns="http://www.w3.org/2000/svg">
<path d="M9.11658 19.375C8.71658 19.375 8.32492 19.275 7.95825 19.075C7.22492 18.6667 6.78325 17.925 6.78325 17.0917V12.675C6.78325 12.2583 6.50825 11.6333 6.24992 11.3167L3.13325 8.01667C2.60825 7.49167 2.20825 6.59167 2.20825 5.91667V4C2.20825 2.66667 3.21659 1.625 4.49992 1.625H15.4999C16.7666 1.625 17.7916 2.65 17.7916 3.91667V5.75C17.7916 6.625 17.2666 7.61667 16.7749 8.10833L13.1666 11.3C12.8166 11.5917 12.5416 12.2333 12.5416 12.75V16.3333C12.5416 17.075 12.0749 17.9333 11.4916 18.2833L10.3416 19.025C9.96659 19.2583 9.54158 19.375 9.11658 19.375ZM4.49992 2.875C3.91659 2.875 3.45825 3.36667 3.45825 4V5.91667C3.45825 6.225 3.70825 6.825 4.02492 7.14167L7.19992 10.4833C7.62492 11.0083 8.04158 11.8833 8.04158 12.6667V17.0833C8.04158 17.625 8.41658 17.8917 8.57492 17.975C8.92492 18.1667 9.34992 18.1667 9.67492 17.9667L10.8333 17.225C11.0666 17.0833 11.2999 16.6333 11.2999 16.3333V12.75C11.2999 11.8583 11.7333 10.875 12.3583 10.35L15.9249 7.19167C16.2083 6.90833 16.5499 6.23333 16.5499 5.74167V3.91667C16.5499 3.34167 16.0833 2.875 15.5083 2.875H4.49992Z" fill="#121212"/>
<path d="M5.00006 9.45839C4.88339 9.45839 4.77506 9.42506 4.66672 9.36672C4.37506 9.18339 4.28339 8.79172 4.46672 8.50006L8.57506 1.91672C8.75839 1.62506 9.14172 1.53339 9.43339 1.71672C9.72506 1.90006 9.81672 2.28339 9.63339 2.57506L5.52506 9.15839C5.40839 9.35006 5.20839 9.45839 5.00006 9.45839Z" fill="#121212"/>
</svg>
