<svg width="16" height="16" viewBox="0 0 16 16" fill="none" xmlns="http://www.w3.org/2000/svg">
<path d="M6.75 12C6.6837 12 6.62011 12.0263 6.57322 12.0732C6.52634 12.1201 6.5 12.1837 6.5 12.25C6.5 12.3163 6.52634 12.3799 6.57322 12.4268C6.62011 12.4737 6.6837 12.5 6.75 12.5H9.25C9.3163 12.5 9.37989 12.4737 9.42678 12.4268C9.47366 12.3799 9.5 12.3163 9.5 12.25C9.5 12.1837 9.47366 12.1201 9.42678 12.0732C9.37989 12.0263 9.3163 12 9.25 12H6.75ZM5.125 1C4.69402 1 4.2807 1.1712 3.97595 1.47595C3.6712 1.7807 3.5 2.19402 3.5 2.625V13.375C3.5 13.806 3.6712 14.2193 3.97595 14.524C4.2807 14.8288 4.69402 15 5.125 15H10.875C11.306 15 11.7193 14.8288 12.024 14.524C12.3288 14.2193 12.5 13.806 12.5 13.375V2.625C12.5 2.19402 12.3288 1.7807 12.024 1.47595C11.7193 1.1712 11.306 1 10.875 1H5.125ZM4 2.625C4 2.32663 4.11853 2.04048 4.3295 1.8295C4.54048 1.61853 4.82663 1.5 5.125 1.5H10.875C11.1734 1.5 11.4595 1.61853 11.6705 1.8295C11.8815 2.04048 12 2.32663 12 2.625V13.375C12 13.6734 11.8815 13.9595 11.6705 14.1705C11.4595 14.3815 11.1734 14.5 10.875 14.5H5.125C4.82663 14.5 4.54048 14.3815 4.3295 14.1705C4.11853 13.9595 4 13.6734 4 13.375V2.625Z" fill="#13191C"/>
</svg>
