<svg width="24" height="24" viewBox="0 0 24 24" fill="none" xmlns="http://www.w3.org/2000/svg">
<path fill-rule="evenodd" clip-rule="evenodd" d="M18 15V4.00002H7C6.44772 4.00002 6.00002 4.44772 6.00002 5V15.1707C6.32121 15.0574 6.65939 14.9996 7 15H18ZM4 5V19C4 20.6569 5.34316 22 7 22H20V18H19V20H7C6.44772 20 6.00002 19.5523 6.00002 19V18C6.00002 17.4477 6.44772 17 7 17H20V2H7C5.34316 2 4 3.34316 4 5ZM11 13V8.99998H13V13H11ZM12 8C12.5523 8 13 7.5523 13 7.00002C13 6.44773 12.5523 5.99998 12 5.99998C11.4477 5.99998 11 6.44773 11 7.00002C11 7.5523 11.4477 8 12 8ZM7 18H18V19H7V18Z" fill="#6E767A"/>
</svg>
