<svg width="24" height="24" viewBox="0 0 24 24" fill="none" xmlns="http://www.w3.org/2000/svg">
<path d="M12.8947 17.4713C13.0352 17.6119 13.1142 17.8026 13.1142 18.0014C13.1142 18.2002 13.0352 18.3909 12.8947 18.5316L11.9628 19.4691C10.9773 20.4539 9.64094 21.007 8.24769 21.0065C6.85444 21.0061 5.51843 20.4522 4.53356 19.4667C3.5487 18.4812 2.99565 17.1449 2.99609 15.7516C2.99653 14.3584 3.55042 13.0224 4.53591 12.0375L6.79716 9.77626C7.74374 8.82892 9.01657 8.27914 10.3552 8.2394C11.6938 8.19967 12.997 8.67299 13.9981 9.56251C14.072 9.62801 14.1322 9.70741 14.1754 9.79619C14.2186 9.88497 14.2438 9.98139 14.2498 10.0799C14.2557 10.1785 14.2421 10.2772 14.2099 10.3705C14.1776 10.4638 14.1273 10.5499 14.0618 10.6238C13.9963 10.6976 13.9169 10.7579 13.8282 10.8011C13.7394 10.8442 13.643 10.8695 13.5444 10.8754C13.4459 10.8813 13.3471 10.8678 13.2538 10.8356C13.1605 10.8033 13.0745 10.753 13.0006 10.6875C12.2856 10.0525 11.355 9.71473 10.3992 9.74313C9.44333 9.77153 8.53446 10.164 7.85841 10.8403L5.59716 13.0988C4.89375 13.8022 4.49859 14.7562 4.49859 15.7509C4.49859 16.7457 4.89375 17.6997 5.59716 18.4031C6.30056 19.1065 7.25458 19.5017 8.24934 19.5017C9.24411 19.5017 10.1981 19.1065 10.9015 18.4031L11.8334 17.4713C11.9031 17.4015 11.9858 17.3462 12.0768 17.3085C12.1679 17.2707 12.2655 17.2513 12.364 17.2513C12.4626 17.2513 12.5602 17.2707 12.6512 17.3085C12.7423 17.3462 12.825 17.4015 12.8947 17.4713ZM19.4647 4.53376C18.479 3.55034 17.1435 2.99805 15.7512 2.99805C14.3589 2.99805 13.0234 3.55034 12.0378 4.53376L11.1059 5.46657C10.9653 5.6073 10.8864 5.79813 10.8864 5.99706C10.8865 6.196 10.9656 6.38675 11.1064 6.52736C11.2471 6.66796 11.4379 6.7469 11.6369 6.74682C11.8358 6.74673 12.0266 6.66762 12.1672 6.52689L13.099 5.59501C13.8024 4.89161 14.7565 4.49644 15.7512 4.49644C16.746 4.49644 17.7 4.89161 18.4034 5.59501C19.1068 6.29842 19.502 7.25244 19.502 8.2472C19.502 9.24196 19.1068 10.196 18.4034 10.8994L16.1422 13.1625C15.4657 13.8384 14.5567 14.2304 13.6008 14.2583C12.645 14.2862 11.7146 13.9478 11 13.3125C10.9261 13.247 10.8401 13.1967 10.7467 13.1645C10.6534 13.1322 10.5547 13.1187 10.4561 13.1246C10.2571 13.1365 10.071 13.2271 9.93872 13.3763C9.87322 13.4501 9.82292 13.5362 9.79067 13.6295C9.75843 13.7228 9.74488 13.8215 9.7508 13.9201C9.76276 14.1191 9.85329 14.3052 10.0025 14.4375C11.0033 15.3273 12.3064 15.8009 13.645 15.7615C14.9836 15.7222 16.2566 15.1727 17.2034 14.2256L19.4647 11.9644C20.4487 10.9787 21.0013 9.6428 21.0013 8.25001C21.0013 6.85722 20.4487 5.52134 19.4647 4.53564V4.53376Z" fill="#6E767A"/>
</svg>
