<svg width="16" height="16" viewBox="0 0 16 16" fill="none" xmlns="http://www.w3.org/2000/svg">
<path d="M4.05133 11.3333L2.91533 12.4693C2.74689 12.6378 2.55222 12.6764 2.33133 12.5853C2.11044 12.4942 2 12.3287 2 12.0887V3.07733C2 2.77022 2.10289 2.514 2.30867 2.30867C2.51444 2.10333 2.77067 2.00044 3.07733 2H12.9233C13.23 2 13.4862 2.10289 13.692 2.30867C13.8978 2.51444 14.0004 2.77067 14 3.07733V10.2567C14 10.5633 13.8973 10.8196 13.692 11.0253C13.4867 11.2311 13.2304 11.3338 12.9233 11.3333H4.05133ZM3.76667 10.6667H12.9233C13.0256 10.6667 13.1196 10.624 13.2053 10.5387C13.2911 10.4533 13.3338 10.3593 13.3333 10.2567V3.07667C13.3333 2.97444 13.2907 2.88044 13.2053 2.79467C13.12 2.70889 13.026 2.66622 12.9233 2.66667H3.07667C2.97444 2.66667 2.88044 2.70933 2.79467 2.79467C2.70889 2.88 2.66622 2.974 2.66667 3.07667V11.7633L3.76667 10.6667ZM4.66667 9H8.66667C8.76178 9 8.84111 8.96822 8.90467 8.90467C8.96822 8.84111 9 8.76178 9 8.66667C9 8.57156 8.96822 8.49222 8.90467 8.42867C8.84111 8.36511 8.76178 8.33333 8.66667 8.33333H4.66667C4.572 8.33333 4.49267 8.36511 4.42867 8.42867C4.36467 8.49222 4.33289 8.57156 4.33333 8.66667C4.33378 8.76178 4.36556 8.84111 4.42867 8.90467C4.49178 8.96822 4.57111 9 4.66667 9ZM4.66667 7H11.3333C11.4284 7 11.5078 6.96822 11.5713 6.90467C11.6349 6.84111 11.6667 6.76178 11.6667 6.66667C11.6667 6.57156 11.6349 6.49222 11.5713 6.42867C11.5078 6.36511 11.4284 6.33333 11.3333 6.33333H4.66667C4.572 6.33333 4.49267 6.36511 4.42867 6.42867C4.36467 6.49222 4.33289 6.57156 4.33333 6.66667C4.33378 6.76178 4.36556 6.84111 4.42867 6.90467C4.49178 6.96822 4.57111 7 4.66667 7ZM4.66667 5H11.3333C11.4284 5 11.5078 4.96822 11.5713 4.90467C11.6349 4.84111 11.6667 4.76178 11.6667 4.66667C11.6667 4.57156 11.6349 4.49222 11.5713 4.42867C11.5078 4.36511 11.4284 4.33333 11.3333 4.33333H4.66667C4.572 4.33333 4.49267 4.36511 4.42867 4.42867C4.36467 4.49222 4.33289 4.57156 4.33333 4.66667C4.33378 4.76178 4.36556 4.84111 4.42867 4.90467C4.49178 4.96822 4.57111 5 4.66667 5Z" fill="#13191C"/>
</svg>
