<svg width="16" height="16" viewBox="0 0 16 16" fill="none" xmlns="http://www.w3.org/2000/svg">
<path d="M3.07733 12.6693C2.77022 12.6693 2.514 12.5666 2.30867 12.3613C2.10333 12.1559 2.00044 11.8995 2 11.5919V4.41327C2 4.10616 2.10289 3.84994 2.30867 3.6446C2.51444 3.43927 2.77044 3.33638 3.07667 3.33594H12.9233C13.23 3.33594 13.486 3.43883 13.6913 3.6446C13.8967 3.85038 13.9996 4.1066 14 4.41327V11.5926C14 11.8993 13.8971 12.1555 13.6913 12.3613C13.4856 12.567 13.2296 12.6697 12.9233 12.6693H3.07733ZM13.3333 4.5926L8.29867 7.8886C8.25156 7.91305 8.204 7.93372 8.156 7.9506C8.10756 7.96705 8.05556 7.97527 8 7.97527C7.94444 7.97527 7.89244 7.96705 7.844 7.9506C7.79556 7.93416 7.748 7.91349 7.70133 7.8886L2.66667 4.59194V11.5919C2.66667 11.7119 2.70511 11.8104 2.782 11.8873C2.85889 11.9642 2.95733 12.0026 3.07733 12.0026H12.9233C13.0429 12.0026 13.1411 11.9642 13.218 11.8873C13.2949 11.8104 13.3333 11.7119 13.3333 11.5919V4.5926ZM8 7.33594L13.128 4.0026H2.872L8 7.33594ZM2.66667 4.73327V4.1926V4.21527V4.0026V4.21594V4.18127V4.73327Z" fill="#13191C"/>
</svg>
