<svg width="24" height="24" viewBox="0 0 24 24" fill="none" xmlns="http://www.w3.org/2000/svg">
<path d="M0 4C0 1.79086 1.79086 0 4 0H20C22.2091 0 24 1.79086 24 4V20C24 22.2091 22.2091 24 20 24H4C1.79086 24 0 22.2091 0 20V4Z" fill="#F3F4F6"/>
<path d="M7.07733 17.1322C6.77022 17.1322 6.514 17.0295 6.30867 16.8242C6.10333 16.6188 6.00044 16.3624 6 16.0548V8.87616C6 8.56905 6.10289 8.31283 6.30867 8.10749C6.51444 7.90216 6.77044 7.79927 7.07667 7.79883H16.9233C17.23 7.79883 17.486 7.90172 17.6913 8.10749C17.8967 8.31327 17.9996 8.56949 18 8.87616V16.0555C18 16.3622 17.8971 16.6184 17.6913 16.8242C17.4856 17.0299 17.2296 17.1326 16.9233 17.1322H7.07733ZM17.3333 9.0555L12.2987 12.3515C12.2516 12.3759 12.204 12.3966 12.156 12.4135C12.1076 12.4299 12.0556 12.4382 12 12.4382C11.9444 12.4382 11.8924 12.4299 11.844 12.4135C11.7956 12.3971 11.748 12.3764 11.7013 12.3515L6.66667 9.05483V16.0548C6.66667 16.1748 6.70511 16.2733 6.782 16.3502C6.85889 16.4271 6.95733 16.4655 7.07733 16.4655H16.9233C17.0429 16.4655 17.1411 16.4271 17.218 16.3502C17.2949 16.2733 17.3333 16.1748 17.3333 16.0548V9.0555ZM12 11.7988L17.128 8.46549H6.872L12 11.7988ZM6.66667 9.19616V8.65549V8.67816V8.46549V8.67883V8.64416V9.19616Z" fill="#13191C"/>
</svg>
