<svg width="35" height="28" viewBox="0 0 35 28" fill="none" xmlns="http://www.w3.org/2000/svg">
<path d="M20.1543 20.79L18.8643 19.5V14.5C18.8643 11.43 17.2243 8.86 14.3643 8.18V7.5C14.3643 6.67 13.6943 6 12.8643 6C12.0343 6 11.3643 6.67 11.3643 7.5V8.18C8.49431 8.86 6.86431 11.42 6.86431 14.5V19.5L5.57431 20.79C4.94431 21.42 5.38431 22.5 6.27431 22.5H19.4443C20.3443 22.5 20.7843 21.42 20.1543 20.79ZM16.8643 20.5H8.86431V14.5C8.86431 12.02 10.3743 10 12.8643 10C15.3543 10 16.8643 12.02 16.8643 14.5V20.5ZM12.8643 25.5C13.9643 25.5 14.8643 24.6 14.8643 23.5H10.8643C10.8643 24.6 11.7543 25.5 12.8643 25.5Z" fill="#6B6F80"/>
<rect x="12.8647" y="0.5" width="22" height="16" rx="8" fill="#E62E2E"/>
<path d="M18.8888 12.5L21.4388 9.2L21.6388 9.33C21.5455 9.43 21.4421 9.51 21.3288 9.57C21.2221 9.63 21.1055 9.67333 20.9788 9.7C20.8588 9.72667 20.7288 9.74 20.5888 9.74C20.1421 9.74 19.7421 9.64 19.3888 9.44C19.0355 9.23333 18.7555 8.95333 18.5488 8.6C18.3488 8.24 18.2488 7.83333 18.2488 7.38C18.2488 6.90667 18.3588 6.48667 18.5788 6.12C18.7988 5.75333 19.0988 5.46333 19.4788 5.25C19.8588 5.03667 20.2921 4.93 20.7788 4.93C21.2721 4.93 21.7055 5.03667 22.0788 5.25C22.4588 5.46333 22.7555 5.75667 22.9688 6.13C23.1888 6.49667 23.2988 6.91667 23.2988 7.39C23.2988 7.64333 23.2721 7.89333 23.2188 8.14C23.1655 8.38667 23.0721 8.64333 22.9388 8.91C22.8055 9.17 22.6188 9.45667 22.3788 9.77L20.2988 12.5H18.8888ZM20.7788 8.75C21.0388 8.75 21.2688 8.69 21.4688 8.57C21.6688 8.45 21.8288 8.28667 21.9488 8.08C22.0688 7.87333 22.1288 7.63667 22.1288 7.37C22.1288 7.09667 22.0688 6.85667 21.9488 6.65C21.8288 6.43667 21.6655 6.27333 21.4588 6.16C21.2588 6.04 21.0321 5.98 20.7788 5.98C20.5255 5.98 20.2955 6.04 20.0888 6.16C19.8888 6.27333 19.7288 6.43667 19.6088 6.65C19.4888 6.85667 19.4288 7.09667 19.4288 7.37C19.4288 7.63667 19.4855 7.87333 19.5988 8.08C19.7188 8.28667 19.8821 8.45 20.0888 8.57C20.2955 8.69 20.5255 8.75 20.7788 8.75ZM26.2547 12.5V10.49H24.2447V9.49H26.2547V7.5H27.2547V9.49H29.2447V10.49H27.2547V12.5H26.2547Z" fill="white"/>
</svg>
