<svg width="24" height="24" viewBox="0 0 24 24" fill="none" xmlns="http://www.w3.org/2000/svg">
<path d="M0 4C0 1.79086 1.79086 0 4 0H20C22.2091 0 24 1.79086 24 4V20C24 22.2091 22.2091 24 20 24H4C1.79086 24 0 22.2091 0 20V4Z" fill="#F3F4F6"/>
<path d="M10.75 16C10.6837 16 10.6201 16.0263 10.5732 16.0732C10.5263 16.1201 10.5 16.1837 10.5 16.25C10.5 16.3163 10.5263 16.3799 10.5732 16.4268C10.6201 16.4737 10.6837 16.5 10.75 16.5H13.25C13.3163 16.5 13.3799 16.4737 13.4268 16.4268C13.4737 16.3799 13.5 16.3163 13.5 16.25C13.5 16.1837 13.4737 16.1201 13.4268 16.0732C13.3799 16.0263 13.3163 16 13.25 16H10.75ZM9.125 5C8.69402 5 8.2807 5.1712 7.97595 5.47595C7.6712 5.7807 7.5 6.19402 7.5 6.625V17.375C7.5 17.806 7.6712 18.2193 7.97595 18.524C8.2807 18.8288 8.69402 19 9.125 19H14.875C15.306 19 15.7193 18.8288 16.024 18.524C16.3288 18.2193 16.5 17.806 16.5 17.375V6.625C16.5 6.19402 16.3288 5.7807 16.024 5.47595C15.7193 5.1712 15.306 5 14.875 5H9.125ZM8 6.625C8 6.32663 8.11853 6.04048 8.3295 5.8295C8.54048 5.61853 8.82663 5.5 9.125 5.5H14.875C15.1734 5.5 15.4595 5.61853 15.6705 5.8295C15.8815 6.04048 16 6.32663 16 6.625V17.375C16 17.6734 15.8815 17.9595 15.6705 18.1705C15.4595 18.3815 15.1734 18.5 14.875 18.5H9.125C8.82663 18.5 8.54048 18.3815 8.3295 18.1705C8.11853 17.9595 8 17.6734 8 17.375V6.625Z" fill="#13191C"/>
</svg>
