<svg width="27" height="29" viewBox="0 0 27 29" fill="none" xmlns="http://www.w3.org/2000/svg">
<path d="M13.3209 18.084C15.5301 18.084 17.3209 16.2931 17.3209 14.084C17.3209 11.8748 15.5301 10.084 13.3209 10.084C11.1118 10.084 9.32092 11.8748 9.32092 14.084C9.32092 16.2931 11.1118 18.084 13.3209 18.084Z" stroke="#13191C" stroke-width="1.5"/>
<path d="M15.6742 0.952667C15.1849 0.75 14.5636 0.75 13.3209 0.75C12.0782 0.75 11.4569 0.75 10.9676 0.952667C10.6438 1.08668 10.3496 1.28319 10.1019 1.53096C9.85411 1.77873 9.6576 2.07291 9.52358 2.39667C9.40091 2.694 9.35158 3.042 9.33291 3.54733C9.32423 3.91257 9.22305 4.26964 9.03884 4.58514C8.85462 4.90064 8.59339 5.16426 8.27958 5.35133C7.96066 5.52969 7.60169 5.62423 7.23629 5.6261C6.87088 5.62796 6.51097 5.5371 6.19025 5.362C5.74225 5.12467 5.41825 4.994 5.09691 4.95133C4.39601 4.85916 3.68718 5.04908 3.12625 5.47933C2.70758 5.80333 2.39558 6.34067 1.77425 7.41667C1.15291 8.49267 0.840913 9.03 0.772913 9.55667C0.727093 9.90394 0.75014 10.2568 0.840735 10.5952C0.931331 10.9336 1.0877 11.2508 1.30091 11.5287C1.49825 11.7847 1.77425 11.9993 2.20225 12.2687C2.83291 12.6647 3.23825 13.3393 3.23825 14.0833C3.23825 14.8273 2.83291 15.502 2.20225 15.8967C1.77425 16.1673 1.49691 16.382 1.30091 16.638C1.0877 16.9159 0.931331 17.2331 0.840735 17.5715C0.75014 17.9098 0.727093 18.2627 0.772913 18.61C0.842247 19.1353 1.15291 19.674 1.77291 20.75C2.39558 21.826 2.70625 22.3633 3.12625 22.6873C3.40416 22.9005 3.72136 23.0569 4.05972 23.1475C4.39808 23.2381 4.75098 23.2612 5.09825 23.2153C5.41825 23.1727 5.74225 23.042 6.19025 22.8047C6.51097 22.6296 6.87088 22.5387 7.23629 22.5406C7.60169 22.5424 7.96066 22.637 8.27958 22.8153C8.92358 23.1887 9.30625 23.8753 9.33291 24.6193C9.35158 25.126 9.39958 25.4727 9.52358 25.77C9.6576 26.0938 9.85411 26.3879 10.1019 26.6357C10.3496 26.8835 10.6438 27.08 10.9676 27.214C11.4569 27.4167 12.0782 27.4167 13.3209 27.4167C14.5636 27.4167 15.1849 27.4167 15.6742 27.214C15.998 27.08 16.2922 26.8835 16.5399 26.6357C16.7877 26.3879 16.9842 26.0938 17.1182 25.77C17.2409 25.4727 17.2902 25.126 17.3089 24.6193C17.3356 23.8753 17.7182 23.1873 18.3622 22.8153C18.6812 22.637 19.0401 22.5424 19.4055 22.5406C19.7709 22.5387 20.1308 22.6296 20.4516 22.8047C20.8996 23.042 21.2236 23.1727 21.5436 23.2153C21.8908 23.2612 22.2437 23.2381 22.5821 23.1475C22.9205 23.0569 23.2377 22.9005 23.5156 22.6873C23.9356 22.3647 24.2462 21.826 24.8676 20.75C25.4889 19.674 25.8009 19.1367 25.8689 18.61C25.9147 18.2627 25.8917 17.9098 25.8011 17.5715C25.7105 17.2331 25.5541 16.9159 25.3409 16.638C25.1436 16.382 24.8676 16.1673 24.4396 15.898C24.1275 15.7079 23.8687 15.4417 23.6875 15.1243C23.5064 14.8069 23.4086 14.4487 23.4036 14.0833C23.4036 13.3393 23.8089 12.6647 24.4396 12.27C24.8676 11.9993 25.1449 11.7847 25.3409 11.5287C25.5541 11.2508 25.7105 10.9336 25.8011 10.5952C25.8917 10.2568 25.9147 9.90394 25.8689 9.55667C25.7996 9.03133 25.4889 8.49267 24.8689 7.41667C24.2462 6.34067 23.9356 5.80333 23.5156 5.47933C23.2377 5.26612 22.9205 5.10975 22.5821 5.01916C22.2437 4.92856 21.8908 4.90551 21.5436 4.95133C21.2236 4.994 20.8996 5.12467 20.4502 5.362C20.1297 5.53686 19.77 5.62759 19.4049 5.62573C19.0397 5.62386 18.681 5.52946 18.3622 5.35133C18.0484 5.16426 17.7872 4.90064 17.603 4.58514C17.4188 4.26964 17.3176 3.91257 17.3089 3.54733C17.2902 3.04067 17.2422 2.694 17.1182 2.39667C16.9842 2.07291 16.7877 1.77873 16.5399 1.53096C16.2922 1.28319 15.998 1.08668 15.6742 0.952667Z" stroke="#13191C" stroke-width="1.5"/>
</svg>
