<svg width="34" height="34" viewBox="0 0 34 34" fill="none" xmlns="http://www.w3.org/2000/svg">
<path d="M2.83325 17C2.83325 11.6879 2.83325 9.03182 4.18605 7.16985C4.62295 6.56852 5.15177 6.03969 5.75311 5.6028C7.61507 4.25 10.2711 4.25 15.5833 4.25H18.4166C23.7287 4.25 26.3848 4.25 28.2467 5.6028C28.8481 6.03969 29.3769 6.56852 29.8138 7.16985C31.1666 9.03182 31.1666 11.6879 31.1666 17C31.1666 22.3121 31.1666 24.9682 29.8138 26.8301C29.3769 27.4315 28.8481 27.9603 28.2467 28.3972C26.3848 29.75 23.7287 29.75 18.4166 29.75H15.5833C10.2711 29.75 7.61507 29.75 5.75311 28.3972C5.15177 27.9603 4.62295 27.4315 4.18605 26.8301C2.83325 24.9682 2.83325 22.3121 2.83325 17Z" stroke="white" stroke-width="1.8" stroke-linejoin="round"/>
<path d="M13.4583 4.95801L13.4583 29.0413" stroke="white" stroke-width="1.8" stroke-linejoin="round"/>
<path d="M7.08325 9.91699C7.08325 9.91699 8.37839 9.91699 9.20825 9.91699" stroke="white" stroke-width="1.8" stroke-linecap="round" stroke-linejoin="round"/>
<path d="M7.08325 15.583H9.20825" stroke="white" stroke-width="1.8" stroke-linecap="round" stroke-linejoin="round"/>
<path d="M24.0833 14.167L22.3457 15.6647C21.6152 16.2943 21.25 16.6091 21.25 17.0003C21.25 17.3915 21.6152 17.7063 22.3457 18.336L24.0833 19.8337" stroke="white" stroke-width="1.8" stroke-linecap="round" stroke-linejoin="round"/>
</svg>
