<svg width="52" height="14" viewBox="0 0 52 14" fill="none" xmlns="http://www.w3.org/2000/svg">
<path d="M4.89178 7.58597C4.84105 7.66869 4.78851 7.72983 4.73415 7.76939C4.68342 7.80535 4.61639 7.82333 4.53305 7.82333C4.45333 7.82333 4.36636 7.79636 4.27215 7.74241C4.18156 7.68487 4.07467 7.62374 3.95147 7.559C3.82827 7.49427 3.68695 7.43493 3.52751 7.38098C3.36808 7.32344 3.18147 7.29467 2.96768 7.29467C2.59083 7.29467 2.30819 7.37919 2.11977 7.54821C1.93135 7.71364 1.83713 7.93122 1.83713 8.20094C1.83713 8.37357 1.88786 8.51742 1.98932 8.6325C2.0944 8.74399 2.23029 8.84109 2.39697 8.9238C2.56728 9.00652 2.75932 9.08024 2.97311 9.14498C3.1869 9.20971 3.40613 9.28164 3.63078 9.36076C3.85544 9.43628 4.07467 9.52619 4.28846 9.63048C4.50225 9.73477 4.69248 9.86604 4.85916 10.0243C5.02947 10.1825 5.16535 10.3767 5.26681 10.6069C5.3719 10.8334 5.42444 11.1104 5.42444 11.4376C5.42444 11.7937 5.36102 12.1281 5.2342 12.441C5.111 12.7503 4.93164 13.0218 4.69611 13.2556C4.46058 13.4857 4.16888 13.6673 3.82102 13.8004C3.47678 13.9335 3.08544 14 2.64699 14C2.39697 14 2.14695 13.9748 1.89692 13.9245C1.65052 13.8741 1.41137 13.804 1.17946 13.7141C0.951179 13.6242 0.735578 13.5163 0.53266 13.3904C0.329742 13.2646 0.152189 13.1243 0 12.9697L0.478307 12.2036C0.518166 12.1461 0.570707 12.0993 0.635931 12.0634C0.701155 12.0238 0.770002 12.004 0.842473 12.004C0.940308 12.004 1.04358 12.04 1.15228 12.1119C1.26099 12.1839 1.386 12.263 1.52732 12.3493C1.66864 12.4356 1.8317 12.5147 2.0165 12.5866C2.20492 12.6586 2.42958 12.6945 2.69048 12.6945C3.07095 12.6945 3.36445 12.6082 3.571 12.4356C3.78116 12.263 3.88624 12.0058 3.88624 11.6642C3.88624 11.4664 3.8337 11.3064 3.72862 11.1841C3.62716 11.0618 3.49309 10.9593 3.32641 10.8766C3.15973 10.7939 2.96949 10.7238 2.7557 10.6662C2.54191 10.6051 2.32269 10.5385 2.09803 10.4666C1.87337 10.3947 1.65415 10.3084 1.44036 10.2077C1.22657 10.107 1.03633 9.97393 0.869649 9.8085C0.702966 9.64307 0.567084 9.43808 0.462001 9.19353C0.360542 8.94898 0.309813 8.64509 0.309813 8.28186C0.309813 7.99056 0.367789 7.70825 0.483742 7.43493C0.599696 7.16161 0.770002 6.91886 0.994661 6.70668C1.21932 6.49449 1.49471 6.32367 1.82083 6.1942C2.15057 6.06473 2.52742 6 2.95137 6C3.42606 6 3.8645 6.07372 4.26672 6.22117C4.67255 6.36503 5.01498 6.56642 5.29399 6.82535L4.89178 7.58597Z" fill="white"/>
<path d="M8.12884 9.3176H8.44952C8.71767 9.3176 8.91152 9.23488 9.0311 9.06945L11.0259 6.42077C11.1201 6.2949 11.2233 6.20859 11.3357 6.16183C11.448 6.11149 11.5857 6.08631 11.7488 6.08631H13.1619L10.6508 9.29602C10.4878 9.50461 10.3193 9.65386 10.1453 9.74376C10.2722 9.79411 10.3863 9.86064 10.4878 9.94336C10.5892 10.0225 10.6871 10.1286 10.7813 10.2616L13.3576 13.9137H11.9064C11.8122 13.9137 11.7306 13.9065 11.6618 13.8921C11.5966 13.8777 11.5386 13.8579 11.4879 13.8328C11.4371 13.8076 11.3936 13.777 11.3574 13.7411C11.3212 13.7015 11.2868 13.6566 11.2541 13.6062L9.22677 10.7903C9.15793 10.6932 9.0764 10.6249 8.98218 10.5853C8.88797 10.5421 8.75571 10.5206 8.58541 10.5206H8.12884V13.9137H6.49825V6.08631H8.12884V9.3176Z" fill="white"/>
<path d="M17.5136 10.9036V13.9137H15.883V10.9036L13.0186 6.08631H14.4535C14.5948 6.08631 14.7071 6.12048 14.7905 6.18881C14.8775 6.25354 14.9463 6.33805 14.997 6.44235L16.2906 8.90762C16.3776 9.07305 16.4555 9.22769 16.5244 9.37154C16.5968 9.5154 16.6602 9.65925 16.7146 9.8031C16.7653 9.65925 16.8233 9.5154 16.8885 9.37154C16.9574 9.2241 17.0335 9.06945 17.1168 8.90762L18.3995 6.44235C18.443 6.35604 18.5082 6.27512 18.5952 6.1996C18.6822 6.12407 18.7945 6.08631 18.9322 6.08631H20.378L17.5136 10.9036Z" fill="white"/>
<path d="M24.354 9.92718H27.0608V13.1585C26.6586 13.4498 26.2292 13.6637 25.7726 13.8004C25.3197 13.9335 24.8395 14 24.3323 14C23.6836 14 23.0966 13.9011 22.5712 13.7033C22.0458 13.5019 21.5965 13.2232 21.2233 12.8672C20.85 12.5111 20.562 12.0886 20.359 11.5995C20.1561 11.1104 20.0547 10.5763 20.0547 9.9973C20.0547 9.4111 20.1507 8.87346 20.3427 8.38436C20.5384 7.89526 20.8156 7.47449 21.1743 7.12205C21.5331 6.76961 21.9661 6.49449 22.4734 6.2967C22.9843 6.0989 23.555 6 24.1855 6C24.5116 6 24.816 6.02697 25.0986 6.08092C25.3813 6.13127 25.6422 6.20319 25.8813 6.2967C26.1205 6.3866 26.3397 6.49449 26.539 6.62036C26.7383 6.74624 26.9195 6.88469 27.0825 7.03574L26.6096 7.7586C26.5372 7.87368 26.443 7.94381 26.327 7.96898C26.2111 7.99416 26.0842 7.96539 25.9465 7.88267C25.8161 7.80355 25.6875 7.73342 25.5606 7.67229C25.4374 7.60755 25.3052 7.55181 25.1639 7.50506C25.0225 7.45831 24.8685 7.42234 24.7019 7.39717C24.5352 7.37199 24.3431 7.35941 24.1257 7.35941C23.7597 7.35941 23.4282 7.42234 23.1311 7.54821C22.8339 7.67408 22.5803 7.8521 22.3701 8.08227C22.1636 8.31243 22.0041 8.58935 21.8918 8.91301C21.7795 9.23668 21.7233 9.59811 21.7233 9.9973C21.7233 10.4289 21.7849 10.8155 21.9081 11.1571C22.0313 11.4952 22.2052 11.7811 22.4299 12.0148C22.6546 12.2486 22.9227 12.4266 23.2343 12.5489C23.5496 12.6712 23.8992 12.7323 24.2833 12.7323C24.5442 12.7323 24.7761 12.7071 24.9791 12.6568C25.1856 12.6028 25.3867 12.5309 25.5824 12.441V11.1247H24.691C24.5859 11.1247 24.5026 11.0978 24.441 11.0438C24.383 10.9863 24.354 10.9144 24.354 10.8281V9.92718Z" fill="white"/>
<path d="M30.7525 9.79231C31.0171 9.79231 31.2453 9.75995 31.4374 9.69521C31.6294 9.62688 31.7871 9.53518 31.9103 9.42009C32.0335 9.30142 32.1241 9.16296 32.182 9.00472C32.24 8.84648 32.269 8.67386 32.269 8.48685C32.269 8.11643 32.144 7.82873 31.894 7.62374C31.6476 7.41875 31.2707 7.31625 30.7634 7.31625H29.9155V9.79231H30.7525ZM34.5736 13.9137H33.1006C32.8252 13.9137 32.6259 13.8094 32.5027 13.6008L31.0026 11.2003C30.941 11.1068 30.8721 11.0384 30.796 10.9953C30.7236 10.9521 30.6148 10.9305 30.4699 10.9305H29.9155V13.9137H28.2849V6.08631H30.7634C31.3142 6.08631 31.7852 6.14385 32.1766 6.25894C32.5679 6.37042 32.8886 6.52686 33.1386 6.72825C33.3887 6.92965 33.5717 7.1706 33.6876 7.45111C33.8036 7.72803 33.8615 8.03372 33.8615 8.36817C33.8615 8.62711 33.8235 8.87346 33.7474 9.10722C33.6749 9.33738 33.568 9.54776 33.4267 9.73837C33.2854 9.92897 33.1115 10.098 32.9049 10.2454C32.6984 10.3929 32.4629 10.5116 32.1983 10.6015C32.3034 10.659 32.4012 10.7292 32.4918 10.8119C32.5824 10.891 32.664 10.9863 32.7364 11.0978L34.5736 13.9137Z" fill="white"/>
<path d="M36.8772 13.9137H35.2357V6.08631H36.8772V13.9137Z" fill="white"/>
<path d="M44 7.39177H41.6954V13.9137H40.0594V7.39177H37.7548V6.08631H44V7.39177Z" fill="white"/>
<g clip-path="url(#clip0_85_1182)">
<path d="M48 0.75C47.3572 0.75 46.7289 0.940609 46.1944 1.29772C45.6599 1.65484 45.2434 2.16242 44.9974 2.75628C44.7514 3.35014 44.687 4.00361 44.8124 4.63404C44.9379 5.26448 45.2474 5.84358 45.7019 6.2981C46.1564 6.75262 46.7355 7.06215 47.366 7.18755C47.9964 7.31295 48.6499 7.24859 49.2437 7.00261C49.8376 6.75662 50.3452 6.34006 50.7023 5.8056C51.0594 5.27114 51.25 4.64279 51.25 4C51.2491 3.13833 50.9064 2.3122 50.2971 1.70291C49.6878 1.09361 48.8617 0.75091 48 0.75ZM48 6.75C47.4561 6.75 46.9244 6.58872 46.4722 6.28654C46.0199 5.98437 45.6675 5.55488 45.4593 5.05238C45.2512 4.54988 45.1967 3.99695 45.3028 3.4635C45.409 2.93005 45.6709 2.44005 46.0555 2.05546C46.4401 1.67086 46.9301 1.40895 47.4635 1.30284C47.997 1.19673 48.5499 1.25119 49.0524 1.45933C49.5549 1.66747 49.9844 2.01995 50.2865 2.47218C50.5887 2.92442 50.75 3.4561 50.75 4C50.7492 4.72909 50.4592 5.42808 49.9436 5.94363C49.4281 6.45918 48.7291 6.74917 48 6.75ZM47.5 3.25C47.5 3.3163 47.4737 3.37989 47.4268 3.42678C47.3799 3.47366 47.3163 3.5 47.25 3.5H47V4.75C47 4.8163 46.9737 4.87989 46.9268 4.92678C46.8799 4.97366 46.8163 5 46.75 5C46.6837 5 46.6201 4.97366 46.5732 4.92678C46.5263 4.87989 46.5 4.8163 46.5 4.75V3.5H46.25C46.1837 3.5 46.1201 3.47366 46.0732 3.42678C46.0263 3.37989 46 3.3163 46 3.25C46 3.1837 46.0263 3.12011 46.0732 3.07322C46.1201 3.02634 46.1837 3 46.25 3H47.25C47.3163 3 47.3799 3.02634 47.4268 3.07322C47.4737 3.12011 47.5 3.1837 47.5 3.25ZM50 3.25V4.75C50 4.8163 49.9737 4.87989 49.9268 4.92678C49.8799 4.97366 49.8163 5 49.75 5C49.6837 5 49.6201 4.97366 49.5732 4.92678C49.5263 4.87989 49.5 4.8163 49.5 4.75V3.91531L49.0625 4.41531C49.039 4.44191 49.0102 4.46322 48.9779 4.47781C48.9455 4.49241 48.9105 4.49995 48.875 4.49995C48.8395 4.49995 48.8045 4.49241 48.7721 4.47781C48.7398 4.46322 48.711 4.44191 48.6875 4.41531L48.25 3.91531V4.75C48.25 4.8163 48.2237 4.87989 48.1768 4.92678C48.1299 4.97366 48.0663 5 48 5C47.9337 5 47.8701 4.97366 47.8232 4.92678C47.7763 4.87989 47.75 4.8163 47.75 4.75V3.25C47.7501 3.19928 47.7657 3.1498 47.7946 3.10813C47.8235 3.06646 47.8645 3.03457 47.9119 3.0167C47.9594 2.99883 48.0112 2.99582 48.0604 3.00808C48.1096 3.02033 48.154 3.04727 48.1875 3.08531L48.875 3.87031L49.5625 3.08531C49.5961 3.04727 49.6404 3.02033 49.6896 3.00808C49.7388 2.99582 49.7906 2.99883 49.8381 3.0167C49.8855 3.03457 49.9265 3.06646 49.9554 3.10813C49.9843 3.1498 49.9999 3.19928 50 3.25Z" fill="white"/>
</g>
<defs>
<clipPath id="clip0_85_1182">
<rect width="8" height="8" fill="white" transform="translate(44)"/>
</clipPath>
</defs>
</svg>
