<svg width="67" height="67" viewBox="0 0 67 67" fill="none" xmlns="http://www.w3.org/2000/svg">
<path d="M0 11.152C0 4.9929 4.99291 0 11.152 0H55.7599C61.9189 0 66.9118 4.99291 66.9118 11.152V55.7599C66.9118 61.9189 61.9189 66.9118 55.7598 66.9118H11.152C4.9929 66.9118 0 61.9189 0 55.7598V11.152Z" fill="#DBEAFE"/>
<path d="M25.1027 39.8346L22.8307 42.1066C22.4938 42.4435 22.1044 42.5209 21.6627 42.3386C21.2209 42.1564 21 41.8253 21 41.3453V23.3226C21 22.7084 21.2058 22.196 21.6173 21.7853C22.0289 21.3746 22.5413 21.1689 23.1547 21.168H42.8467C43.46 21.168 43.9724 21.3737 44.384 21.7853C44.7956 22.1969 45.0009 22.7093 45 23.3226V37.6813C45 38.2946 44.7947 38.8071 44.384 39.2186C43.9733 39.6302 43.4609 39.8355 42.8467 39.8346H25.1027ZM24.5333 38.5013H42.8467C43.0511 38.5013 43.2391 38.416 43.4107 38.2453C43.5822 38.0746 43.6676 37.8866 43.6667 37.6813V23.3213C43.6667 23.1169 43.5813 22.9289 43.4107 22.7573C43.24 22.5857 43.052 22.5004 42.8467 22.5013H23.1533C22.9489 22.5013 22.7609 22.5866 22.5893 22.7573C22.4178 22.928 22.3324 23.116 22.3333 23.3213V40.6946L24.5333 38.5013ZM26.3333 35.168H34.3333C34.5236 35.168 34.6822 35.1044 34.8093 34.9773C34.9364 34.8502 35 34.6915 35 34.5013C35 34.3111 34.9364 34.1524 34.8093 34.0253C34.6822 33.8982 34.5236 33.8346 34.3333 33.8346H26.3333C26.144 33.8346 25.9853 33.8982 25.8573 34.0253C25.7293 34.1524 25.6658 34.3111 25.6667 34.5013C25.6676 34.6915 25.7311 34.8502 25.8573 34.9773C25.9836 35.1044 26.1422 35.168 26.3333 35.168ZM26.3333 31.168H39.6667C39.8569 31.168 40.0156 31.1044 40.1427 30.9773C40.2698 30.8502 40.3333 30.6915 40.3333 30.5013C40.3333 30.3111 40.2698 30.1524 40.1427 30.0253C40.0156 29.8982 39.8569 29.8346 39.6667 29.8346H26.3333C26.144 29.8346 25.9853 29.8982 25.8573 30.0253C25.7293 30.1524 25.6658 30.3111 25.6667 30.5013C25.6676 30.6915 25.7311 30.8502 25.8573 30.9773C25.9836 31.1044 26.1422 31.168 26.3333 31.168ZM26.3333 27.168H39.6667C39.8569 27.168 40.0156 27.1044 40.1427 26.9773C40.2698 26.8502 40.3333 26.6915 40.3333 26.5013C40.3333 26.3111 40.2698 26.1524 40.1427 26.0253C40.0156 25.8982 39.8569 25.8346 39.6667 25.8346H26.3333C26.144 25.8346 25.9853 25.8982 25.8573 26.0253C25.7293 26.1524 25.6658 26.3111 25.6667 26.5013C25.6676 26.6915 25.7311 26.8502 25.8573 26.9773C25.9836 27.1044 26.1422 27.168 26.3333 27.168Z" fill="#0D47A1"/>
</svg>
