<svg width="24" height="24" viewBox="0 0 24 24" fill="none" xmlns="http://www.w3.org/2000/svg">
<path d="M13.4967 14.7823C14.6724 14.0501 15.5776 12.9548 16.0754 11.6622C16.5732 10.3697 16.6365 8.95013 16.2557 7.61839C15.8749 6.28666 15.0707 5.11518 13.9648 4.2812C12.8589 3.44721 11.5115 2.99609 10.1264 2.99609C8.74125 2.99609 7.39382 3.44721 6.28793 4.2812C5.18203 5.11518 4.37785 6.28666 3.99703 7.61839C3.61622 8.95013 3.6795 10.3697 4.1773 11.6622C4.6751 12.9548 5.58033 14.0501 6.75605 14.7823C4.82011 15.4161 3.07824 16.6002 1.67761 18.267C1.61199 18.3421 1.56198 18.4295 1.53052 18.524C1.49906 18.6186 1.48677 18.7186 1.49437 18.818C1.50198 18.9174 1.52932 19.0142 1.57481 19.103C1.6203 19.1917 1.68301 19.2704 1.75929 19.3346C1.83556 19.3988 1.92387 19.4471 2.01905 19.4768C2.11423 19.5064 2.21436 19.5168 2.3136 19.5073C2.41283 19.4978 2.50918 19.4687 2.59701 19.4215C2.68484 19.3743 2.76239 19.3101 2.82511 19.2327C4.70761 16.9864 7.30074 15.7498 10.1217 15.7498C12.9426 15.7498 15.5357 16.9864 17.422 19.2327C17.55 19.3851 17.7334 19.4804 17.9317 19.4976C18.13 19.5148 18.3271 19.4526 18.4795 19.3245C18.6319 19.1965 18.7272 19.0131 18.7444 18.8148C18.7617 18.6165 18.6994 18.4194 18.5714 18.267C17.1698 16.6002 15.4279 15.4161 13.4967 14.7823ZM5.24667 9.37484C5.24667 8.41066 5.53259 7.46813 6.06826 6.66644C6.60393 5.86475 7.3653 5.23991 8.25609 4.87093C9.14688 4.50195 10.1271 4.40541 11.0727 4.59351C12.0184 4.78162 12.887 5.24592 13.5688 5.9277C14.2506 6.60948 14.7149 7.47812 14.903 8.42378C15.0911 9.36944 14.9946 10.3496 14.6256 11.2404C14.2566 12.1312 13.6318 12.8926 12.8301 13.4283C12.0284 13.9639 11.0859 14.2498 10.1217 14.2498C8.8292 14.2484 7.59009 13.7343 6.67617 12.8203C5.76226 11.9064 5.24816 10.6673 5.24667 9.37484ZM22.8951 13.4127L22.4582 13.1605C22.5095 12.8891 22.5095 12.6106 22.4582 12.3392L22.8951 12.087C23.0674 11.9876 23.1932 11.8237 23.2447 11.6316C23.2962 11.4394 23.2693 11.2347 23.1698 11.0623C23.0703 10.89 22.9065 10.7643 22.7143 10.7128C22.5222 10.6613 22.3174 10.6882 22.1451 10.7877L21.7073 11.0408C21.4978 10.861 21.2569 10.7215 20.9967 10.6292V10.1248C20.9967 9.92593 20.9177 9.73517 20.777 9.59451C20.6364 9.45386 20.4456 9.37484 20.2467 9.37484C20.0478 9.37484 19.857 9.45386 19.7163 9.59451C19.5757 9.73517 19.4967 9.92593 19.4967 10.1248V10.6292C19.2365 10.7215 18.9956 10.861 18.786 11.0408L18.3482 10.7877C18.2629 10.7384 18.1687 10.7065 18.0711 10.6936C17.9734 10.6808 17.8742 10.6873 17.779 10.7128C17.6839 10.7383 17.5947 10.7823 17.5165 10.8423C17.4384 10.9022 17.3728 10.977 17.3236 11.0623C17.2743 11.1477 17.2423 11.2418 17.2295 11.3395C17.2167 11.4372 17.2232 11.5364 17.2487 11.6316C17.2742 11.7267 17.3182 11.8159 17.3782 11.8941C17.4381 11.9722 17.5129 12.0378 17.5982 12.087L18.0351 12.3392C17.9839 12.6106 17.9839 12.8891 18.0351 13.1605L17.5982 13.4127C17.4259 13.5121 17.3002 13.6759 17.2487 13.8681C17.1972 14.0603 17.2241 14.265 17.3236 14.4373C17.423 14.6097 17.5868 14.7354 17.779 14.7869C17.9712 14.8384 18.1759 14.8115 18.3482 14.712L18.786 14.4589C18.9956 14.6387 19.2365 14.7782 19.4967 14.8705V15.3748C19.4967 15.5738 19.5757 15.7645 19.7163 15.9052C19.857 16.0458 20.0478 16.1248 20.2467 16.1248C20.4456 16.1248 20.6364 16.0458 20.777 15.9052C20.9177 15.7645 20.9967 15.5738 20.9967 15.3748V14.8705C21.2569 14.7782 21.4978 14.6387 21.7073 14.4589L22.1451 14.712C22.259 14.7781 22.3884 14.8128 22.5201 14.8123C22.6853 14.8124 22.8458 14.758 22.9769 14.6574C23.1079 14.5569 23.2021 14.416 23.2449 14.2564C23.2876 14.0969 23.2765 13.9277 23.2132 13.7752C23.15 13.6226 23.0382 13.4952 22.8951 13.4127ZM19.4967 12.7498C19.4967 12.6015 19.5407 12.4565 19.6231 12.3332C19.7055 12.2098 19.8226 12.1137 19.9597 12.0569C20.0967 12.0002 20.2475 11.9853 20.393 12.0143C20.5385 12.0432 20.6721 12.1146 20.777 12.2195C20.8819 12.3244 20.9533 12.458 20.9823 12.6035C21.0112 12.749 20.9964 12.8998 20.9396 13.0369C20.8828 13.1739 20.7867 13.291 20.6634 13.3734C20.54 13.4559 20.395 13.4998 20.2467 13.4998C20.0478 13.4998 19.857 13.4208 19.7163 13.2802C19.5757 13.1395 19.4967 12.9488 19.4967 12.7498Z" fill="#6E767A"/>
</svg>
