<svg width="24" height="24" viewBox="0 0 24 24" fill="none" xmlns="http://www.w3.org/2000/svg">
<path d="M14.374 2C14.6082 2.00011 14.8349 2.08232 15.0146 2.23242C15.1944 2.38263 15.3157 2.59173 15.3574 2.82227L15.9424 6.04492L15.9785 6.24121L16.1387 6.35938C17.0252 7.00876 17.7471 7.85786 18.2441 8.83789C18.7411 9.81783 18.9997 10.9012 19 12L18.9883 12.4111C18.9317 13.368 18.679 14.3047 18.2441 15.1621C17.7471 16.1421 17.0252 16.9912 16.1387 17.6406L15.9785 17.7588L15.9424 17.9551L15.3574 21.1777C15.3157 21.4083 15.1944 21.6174 15.0146 21.7676C14.8349 21.9177 14.6082 21.9999 14.374 22H9.62695C9.39267 21.9999 9.16514 21.9178 8.98535 21.7676C8.80563 21.6174 8.6843 21.4082 8.64258 21.1777L8.05762 17.9551L8.02246 17.7588L7.86133 17.6406L7.53613 17.3877C6.79745 16.777 6.19077 16.0195 5.75586 15.1621C5.25886 14.1822 5 13.0988 5 12C5 10.9012 5.25886 9.81784 5.75586 8.83789C6.25298 7.85785 6.97463 7.00852 7.86133 6.35938L8.02246 6.24121L8.05762 6.04492L8.64258 2.82227C8.6843 2.59179 8.80563 2.38262 8.98535 2.23242C9.14264 2.10101 9.33628 2.02177 9.53906 2.00391L9.62695 2H14.374ZM14.5576 18.5146C12.9144 19.162 11.0865 19.1619 9.44336 18.5146L8.60742 18.1855L8.76758 19.0693L9.13477 21.0889L9.20898 21.5H14.791L14.8662 21.0889L15.2324 19.0693L15.3926 18.1855L14.5576 18.5146ZM13.2686 5.625C12.0077 5.3742 10.7004 5.50315 9.5127 5.99512C8.32509 6.48708 7.30989 7.31986 6.5957 8.38867C5.88147 9.45759 5.5 10.7144 5.5 12V12.001C5.502 13.724 6.18788 15.3764 7.40625 16.5947C8.54858 17.7369 10.072 18.41 11.6777 18.4912L12 18.5C13.2856 18.5 14.5424 18.1185 15.6113 17.4043C16.6802 16.6901 17.5139 15.675 18.0059 14.4873C18.4977 13.2997 18.6258 11.9922 18.375 10.7314C18.1241 9.47077 17.5056 8.31224 16.5967 7.40332C15.6877 6.4944 14.5293 5.87583 13.2686 5.625ZM12 8C12.0663 8 12.1299 8.02642 12.1768 8.07324C12.2236 8.12013 12.25 8.1837 12.25 8.25V11.75H15.75C15.8163 11.75 15.8799 11.7764 15.9268 11.8232C15.9736 11.8701 16 11.9337 16 12C16 12.0663 15.9736 12.1299 15.9268 12.1768C15.8799 12.2236 15.8163 12.25 15.75 12.25H12C11.9338 12.2499 11.8701 12.2236 11.8232 12.1768C11.7764 12.1299 11.75 12.0663 11.75 12V8.25C11.75 8.18375 11.7764 8.12012 11.8232 8.07324C11.8701 8.02641 11.9338 8.00006 12 8ZM9.13477 2.91113L8.76758 4.93066L8.60742 5.81445L9.44336 5.48535C11.0865 4.83811 12.9144 4.83805 14.5576 5.48535L15.3926 5.81445L15.2324 4.93066L14.8662 2.91113L14.791 2.5H9.20898L9.13477 2.91113Z" stroke="#6E767A"/>
</svg>
